<svg xmlns="http://www.w3.org/2000/svg" version="1.1" xmlns:xlink="http://www.w3.org/1999/xlink" xmlns:svgjs="http://svgjs.dev/svgjs" width="1500" height="276" viewBox="0 0 1500 276"><g transform="matrix(1,0,0,1,-0.9090909090906507,-0.9090004980762387)"><svg viewBox="0 0 396 73" data-background-color="#ffffff" preserveAspectRatio="xMidYMid meet" height="276" width="1500" xmlns="http://www.w3.org/2000/svg" xmlns:xlink="http://www.w3.org/1999/xlink"><g id="tight-bounds" transform="matrix(1,0,0,1,0.23999999999992383,0.24042404478103663)"><svg viewBox="0 0 395.5199999999999 72.5191519104379" height="72.5191519104379" width="395.5199999999999"><g><svg viewBox="0 0 557.9397190751731 102.29903732928683" height="72.5191519104379" width="395.5199999999999"><g transform="matrix(1,0,0,1,0,14.138289529590303)"><svg viewBox="0 0 395.52 74.02245827010623" height="74.02245827010623" width="395.52"><g id="textblocktransform"><svg viewBox="0 0 395.52 74.02245827010623" height="74.02245827010623" width="395.52" id="textblock"><g><svg viewBox="0 0 395.52 74.02245827010623" height="74.02245827010623" width="395.52"><g transform="matrix(1,0,0,1,0,0)"><svg width="395.52" viewBox="4.25 -36.5 197.69 37" height="74.02245827010623" data-palette-color="#77d4fc"><path d="M8.75-4L28.35-4 28.35 0 4.25 0 4.25-35.5 27.9-35.5 27.9-31.5 8.75-31.5 8.75-20 25.4-20 25.4-16.25 8.75-16.25 8.75-4ZM31.55-13L31.55-13Q31.55-16.7 33.07-19.78 34.6-22.85 37.27-24.7 39.95-26.55 43.4-26.55L43.4-26.55Q46.55-26.55 49.05-24.9 51.55-23.25 52.95-20.9L52.95-20.9 52.95-36.5 57.35-36.5 57.35-5Q57.35-4.2 57.67-3.83 58-3.45 58.75-3.4L58.75-3.4 58.75 0Q57.5 0.2 56.8 0.2L56.8 0.2Q55.5 0.2 54.52-0.7 53.55-1.6 53.55-2.7L53.55-2.7 53.55-4.9Q52-2.4 49.4-0.95 46.8 0.5 44 0.5L44 0.5Q41.3 0.5 39.02-0.58 36.75-1.65 35.07-3.55 33.4-5.45 32.47-7.88 31.55-10.3 31.55-13ZM52.95-9.15L52.95-9.15 52.95-16.65Q52.35-18.35 51-19.73 49.65-21.1 47.97-21.93 46.3-22.75 44.65-22.75L44.65-22.75Q42.7-22.75 41.12-21.93 39.55-21.1 38.42-19.73 37.3-18.35 36.7-16.6 36.1-14.85 36.1-12.95L36.1-12.95Q36.1-11 36.77-9.25 37.45-7.5 38.67-6.15 39.9-4.8 41.52-4.05 43.15-3.3 45.05-3.3L45.05-3.3Q46.25-3.3 47.52-3.75 48.8-4.2 49.95-5 51.1-5.8 51.9-6.88 52.7-7.95 52.95-9.15ZM64.45-10.45L64.45-10.45 64.45-26.1 68.84-26.1 68.84-11.3Q68.84-7.3 70.25-5.3 71.65-3.3 74.4-3.3L74.4-3.3Q76.2-3.3 77.87-4.08 79.55-4.85 80.9-6.3 82.25-7.75 83-9.75L83-9.75 83-26.1 87.4-26.1 87.4-5Q87.4-4.2 87.72-3.83 88.05-3.45 88.8-3.4L88.8-3.4 88.8 0Q88.05 0.1 87.62 0.13 87.2 0.15 86.8 0.15L86.8 0.15Q85.55 0.15 84.65-0.63 83.75-1.4 83.7-2.55L83.7-2.55 83.59-5.6Q81.9-2.7 79.02-1.1 76.15 0.5 72.75 0.5L72.75 0.5Q68.65 0.5 66.55-2.27 64.45-5.05 64.45-10.45ZM119.74 0L95.44 0 95.44-35.5 99.94-35.5 99.94-4 119.74-4 119.74 0ZM121.89-7.55L121.89-7.55Q121.89-10.05 123.32-11.88 124.74-13.7 127.24-14.7 129.74-15.7 133.04-15.7L133.04-15.7Q134.79-15.7 136.74-15.43 138.69-15.15 140.19-14.6L140.19-14.6 140.19-16.5Q140.19-19.5 138.39-21.23 136.59-22.95 133.29-22.95L133.29-22.95Q131.14-22.95 129.17-22.18 127.19-21.4 124.99-19.95L124.99-19.95 123.39-23.05Q125.94-24.8 128.49-25.68 131.04-26.55 133.79-26.55L133.79-26.55Q138.79-26.55 141.69-23.78 144.59-21 144.59-16.05L144.59-16.05 144.59-5Q144.59-4.2 144.92-3.83 145.24-3.45 145.99-3.4L145.99-3.4 145.99 0Q145.34 0.1 144.87 0.15 144.39 0.2 144.09 0.2L144.09 0.2Q142.54 0.2 141.77-0.65 140.99-1.5 140.89-2.45L140.89-2.45 140.79-4.1Q139.09-1.9 136.34-0.7 133.59 0.5 130.89 0.5L130.89 0.5Q128.29 0.5 126.24-0.58 124.19-1.65 123.04-3.48 121.89-5.3 121.89-7.55ZM138.89-5.7L138.89-5.7Q139.49-6.4 139.84-7.13 140.19-7.85 140.19-8.35L140.19-8.35 140.19-11.6Q138.64-12.2 136.94-12.53 135.24-12.85 133.59-12.85L133.59-12.85Q130.24-12.85 128.17-11.53 126.09-10.2 126.09-7.9L126.09-7.9Q126.09-6.65 126.77-5.48 127.44-4.3 128.77-3.55 130.09-2.8 132.04-2.8L132.04-2.8Q134.09-2.8 135.94-3.63 137.79-4.45 138.89-5.7ZM165.04 0.5L165.04 0.5Q161.99 0.5 159.49-1 156.99-2.5 155.54-4.9L155.54-4.9 155.54 0 151.64 0 151.64-36.5 156.04-36.5 156.04-20.9Q157.69-23.45 160.09-25 162.49-26.55 165.69-26.55L165.69-26.55Q168.39-26.55 170.54-25.43 172.69-24.3 174.21-22.38 175.74-20.45 176.56-18.03 177.39-15.6 177.39-12.95L177.39-12.95Q177.39-10.2 176.46-7.78 175.54-5.35 173.84-3.48 172.14-1.6 169.91-0.55 167.69 0.5 165.04 0.5ZM163.94-3.3L163.94-3.3Q165.89-3.3 167.54-4.1 169.19-4.9 170.39-6.25 171.59-7.6 172.24-9.35 172.89-11.1 172.89-12.95L172.89-12.95Q172.89-15.5 171.81-17.75 170.74-20 168.81-21.38 166.89-22.75 164.34-22.75L164.34-22.75Q162.49-22.75 160.89-21.9 159.29-21.05 158.06-19.68 156.84-18.3 156.04-16.65L156.04-16.65 156.04-9.1Q156.29-7.85 157.09-6.8 157.89-5.75 159.04-4.98 160.19-4.2 161.46-3.75 162.74-3.3 163.94-3.3ZM191.74 0.5L191.74 0.5Q188.49 0.5 185.64-0.58 182.79-1.65 180.74-3.8L180.74-3.8 182.44-6.9Q184.69-4.8 186.94-3.9 189.19-3 191.54-3L191.54-3Q194.24-3 195.94-4.03 197.64-5.05 197.64-7.05L197.64-7.05Q197.64-8.5 196.76-9.2 195.89-9.9 194.29-10.38 192.69-10.85 190.49-11.45L190.49-11.45Q187.79-12.25 185.94-13.15 184.09-14.05 183.14-15.4 182.19-16.75 182.19-18.8L182.19-18.8Q182.19-21.3 183.49-23.03 184.79-24.75 187.06-25.65 189.34-26.55 192.24-26.55L192.24-26.55Q195.14-26.55 197.49-25.65 199.84-24.75 201.54-23L201.54-23 199.54-19.95Q197.99-21.55 196.14-22.33 194.29-23.1 191.99-23.1L191.99-23.1Q190.64-23.1 189.34-22.78 188.04-22.45 187.19-21.63 186.34-20.8 186.34-19.3L186.34-19.3Q186.34-18.05 187.01-17.32 187.69-16.6 189.01-16.1 190.34-15.6 192.24-15L192.24-15Q195.19-14.15 197.36-13.3 199.54-12.45 200.74-11.1 201.94-9.75 201.94-7.35L201.94-7.35Q201.94-3.65 199.14-1.58 196.34 0.5 191.74 0.5Z" opacity="1" transform="matrix(1,0,0,1,0,0)" fill="#77d4fc" class="wordmark-text-0" data-fill-palette-color="primary" id="text-0"></path></svg></g></svg></g></svg></g></svg></g><g transform="matrix(1,0,0,1,412.9949258585736,0)"><svg viewBox="0 0 144.9447932165996 102.29903732928683" height="102.29903732928683" width="144.9447932165996"><g><svg xmlns="http://www.w3.org/2000/svg" xmlns:xlink="http://www.w3.org/1999/xlink" version="1.1" x="0" y="0" viewBox="5.199999999999989 152.49895743574325 503.7 355.50104256425675" style="enable-background:new 0 0 512 512;" xml:space="preserve" height="102.29903732928683" width="144.9447932165996" class="icon-icon-0" data-fill-palette-color="accent" id="icon-0"><path d="M175.2 384c0 42 0 82.9 0 124-56.9 0-113 0-170 0 0-3 0-5.8 0-8.5 0-49.5 0-99 0-148.6 0-29 19.2-48.2 48.2-48.2 32.4 0 64.8 0.2 97.1-0.2 8.4-0.1 15.7 1.7 21.7 7.2 18.8 17.4 37.5 35 56 52.8 7.3 7.1 13.9 15 22.6 24.4 5.3-6 10-12.2 15.5-17.7 17-17 34.2-33.8 51.4-50.6 7-6.8 15.4-8.6 24.4-5.3 8.7 3.2 13.8 10 14.8 19.3 0.9 8.5-3.2 15-9.1 20.8-22.3 22.1-44.5 44.4-66.7 66.6-5.1 5-10 10.2-15.2 15.1-10.1 9.3-24.7 9.9-35 0.6-17.2-15.7-34-31.9-51-47.9C178.8 386.8 177.5 385.8 175.2 384z" fill="#4b91f1" data-fill-palette-color="accent"></path><path d="M227.1 507.8c0-11.5 0-22.8 0-35 81.8 0 163.5 0 245.7 0 0-92.9 0-184.9 0-277.5-69.8 0-139.6 0-210.5 0 0 2.9 0 5.7 0 8.5 0 36.9-0.8 73.8 0.4 110.7 0.5 14.3-4.7 23.4-16.2 31-5.8-6.2-11.9-12.4-17.6-19-1.3-1.4-2-3.8-2.1-5.8-0.1-54.5-0.1-109 0-163.5 0-0.9 0.3-1.8 0.5-3.3 93.8 0 187.4 0 281.6 0 0 117.8 0 235.5 0 353.8C415.2 507.8 321.3 507.8 227.1 507.8z" fill="#4b91f1" data-fill-palette-color="accent"></path><path d="M97.7 152.5c36.5 0.2 65.4 29.4 65.2 66-0.2 35.8-29.8 65-65.8 64.9-36.6-0.1-65.7-29.7-65.5-66.5C31.8 180.9 61.2 152.3 97.7 152.5z" fill="#4b91f1" data-fill-palette-color="accent"></path></svg></g></svg></g></svg></g><defs></defs></svg><rect width="395.5199999999999" height="72.5191519104379" fill="none" stroke="none" visibility="hidden"></rect></g></svg></g></svg>